<svg xmlns="http://www.w3.org/2000/svg" width="1697.4" height="641.1"><rect width="100%" height="100%" fill="none"/><g class="currentLayer"><title>Layer 1</title><path fill="none" stroke="#f7f7f7" stroke-width="13" d="M236.235 122.559c0-18.378 14.887-33.265 33.265-33.265s33.265 14.887 33.265 33.265-14.887 33.265-33.265 33.265-33.265-14.887-33.265-33.265zm234.118 133.529c0-38.853 31.47-70.323 70.323-70.323 38.853 0 70.324 31.47 70.324 70.323 0 38.853-31.47 70.324-70.324 70.324-38.852 0-70.323-31.471-70.323-70.324zm312.941-37.058c0-102.877 83.33-186.206 186.206-186.206 102.876 0 186.206 83.33 186.206 186.205 0 102.877-83.33 186.206-186.206 186.206-102.876 0-186.206-83.33-186.206-186.206zM660.941 537.853c0-34.628 28.049-62.677 62.677-62.677s62.676 28.05 62.676 62.677c0 34.628-28.048 62.676-62.676 62.676s-62.677-28.048-62.677-62.676zM1231.53 565.5c0-22.603 18.308-40.912 40.911-40.912s40.912 18.309 40.912 40.912c0 22.603-18.309 40.912-40.912 40.912-22.603 0-40.912-18.309-40.912-40.912zm145.882-386.47c0-81.427 65.955-147.383 147.382-147.383s147.383 65.956 147.383 147.382c0 81.427-65.956 147.383-147.383 147.383s-147.382-65.956-147.382-147.383zM51.53 460.794c0-77.852 63.06-140.912 140.911-140.912 77.852 0 140.912 63.06 140.912 140.912s-63.06 140.912-140.912 140.912S51.53 538.646 51.53 460.794z" class="selected"/></g></svg>