<svg id="Ebene_1" xmlns="http://www.w3.org/2000/svg" viewBox="0 0 415.4 92.7"><style>.st0{fill:#8a97a3}.st1{fill:#f9b400}.st2{enable-background:new}</style><title>Element 1</title><path class="st0" d="M57.1 12.8c0 .9-.2 1.8-.5 2.6s-.8 1.5-1.5 2.1c-.6.6-1.4 1.1-2.2 1.5-1.7.7-3.6.7-5.3 0-.8-.3-1.5-.8-2.2-1.5-.6-.6-1.1-1.4-1.5-2.2-.4-.8-.5-1.7-.5-2.6 0-.9.2-1.8.5-2.6.7-1.6 2-2.9 3.6-3.6 1.7-.7 3.6-.7 5.3 0 .8.4 1.6.9 2.2 1.5.6.6 1.1 1.4 1.5 2.2.4.8.6 1.7.6 2.6zM45.2 24.1h10.2v24.5H45.2zm256.9 19.5c0 2.2-.4 4.5-1.3 6.6-.8 2-2 3.7-3.4 5.3-1.5 1.5-3.2 2.7-5.1 3.5-4 1.7-8.5 1.7-12.5 0-3.9-1.7-7-4.8-8.5-8.8-.8-2.1-1.3-4.3-1.2-6.6 0-2.3.4-4.5 1.2-6.6.8-2 2-3.8 3.5-5.3s3.2-2.7 5.1-3.5c2-.8 4.1-1.3 6.2-1.2 2.1 0 4.3.4 6.3 1.2 1.9.8 3.6 1.9 5.1 3.4 1.5 1.5 2.6 3.3 3.4 5.3.8 2.1 1.2 4.4 1.2 6.7zm-8.1 0c0-1.2-.2-2.4-.6-3.5-.4-1-1-1.9-1.7-2.7-.7-.7-1.6-1.3-2.5-1.7-2-.8-4.2-.8-6.2 0-1 .4-1.8 1-2.5 1.7-.7.8-1.3 1.7-1.7 2.7-.4 1.1-.6 2.3-.6 3.5 0 1.2.2 2.3.6 3.4.4 1 1 1.9 1.7 2.7.7.8 1.6 1.4 2.5 1.8 1 .4 2 .7 3.1.7 2.1 0 4.2-.8 5.6-2.3.7-.8 1.3-1.7 1.7-2.7.4-1.2.6-2.4.6-3.6zm37.5 12.3c-.7.6-1.3 1.1-2.1 1.7-.7.5-1.5 1-2.3 1.3-.8.4-1.6.7-2.5.9-.8.2-1.7.3-2.6.3-1.9 0-3.7-.3-5.5-1-1.7-.7-3.2-1.7-4.5-2.9-1.3-1.3-2.3-2.9-3-4.6-.8-1.9-1.1-4-1.1-6.1V26h8l.1 19.6c0 1 .1 1.9.5 2.8.3.8.7 1.5 1.3 2.1.5.6 1.2 1 1.9 1.3.8.3 1.6.5 2.4.5.8 0 1.6-.2 2.3-.6.7-.4 1.4-.9 1.9-1.5.6-.6 1-1.4 1.3-2.2.3-.8.5-1.6.5-2.5V34h8v25.6h-1.9l-2.7-3.7zm-203.8 3.6H117V6.2h10.7v53.3zm53.1-53.3l-17.5 53.3-10-.1-18-53.2h12.1L158 41.7l10.6-35.5h12.2zm44 53.3h-36.5V6.2h36.5v10.7H199v10.7h17.5v10.7H199v10.6h25.9l-.1 10.6zM106.6 25.7c-.6-2.2-1.5-4.4-2.6-6.4-1.2-2-2.6-3.8-4.2-5.4-1.6-1.6-3.4-3-5.4-4.2-2-1.2-4.2-2.1-6.4-2.7-2.3-.7-4.7-1-7.1-1h-16v42.7h10.7v-32H81c2.1 0 4.3.4 6.2 1.3 3.8 1.6 6.9 4.7 8.5 8.5 1.7 4 1.7 8.5 0 12.4-1.6 3.8-4.7 6.9-8.5 8.5-2 .9-4.1 1.3-6.2 1.3h-5.4v10.7H81c2.4 0 4.8-.3 7.1-1 2.2-.6 4.4-1.5 6.4-2.7 2-1.2 3.8-2.6 5.4-4.2 1.6-1.6 3-3.4 4.2-5.3 3.5-6.2 4.5-13.5 2.5-20.5zm160.1.3h-8.3v4.2c0 1.1-.2 2.2-.7 3.3-.4 1-1 1.9-1.8 2.7-.8.8-1.7 1.4-2.7 1.8-2.1.9-4.5.9-6.6 0-1-.4-1.9-1-2.7-1.8-.8-.8-1.4-1.7-1.8-2.7-.4-1-.7-2.1-.7-3.3V17.5H233v12.6c0 1.9.3 3.8.9 5.5 1.2 3.5 3.5 6.5 6.6 8.5 1.6 1 3.3 1.8 5.1 2.3v13.2h8.4V46.4c1.8-.5 3.6-1.2 5.1-2.3 3.1-2 5.4-5 6.6-8.5.6-1.8.9-3.6.9-5.5V26h.1zm37.9-17.9l-1.6.1h-1.9l-2.1-.3-.6-.1-.6-.2c-.2-.1-.4-.1-.6-.2l-.6-.4c-.9-.6-1.8-1.3-2.6-2.1-.9-.8-1.8-1.6-2.8-2.2-.2-.1-.5-.3-.7-.4l-.7-.3c-.1 0-.2-.1-.4-.1l-.4-.1-.8-.1c-.5-.1-1-.1-1.5 0-.5 0-1 0-1.6.1-2.2.4-4.3 1-6.4 1.9l-1.6.6c-.5.2-1.1.4-1.6.7-1.1.6-2.2 1.3-3.3 1.8-1.1.4-2.2.6-3.3.6l-1.6.1c-.5 0-1.1-.1-1.6-.1-.3 0-.6-.1-.8-.1l-.9-.2c-.1 0-.3-.1-.4-.1l-.4-.2c-.1-.1-.3-.1-.4-.2l-.4-.3c-1.1-.9-2.2-1.9-3.1-2.9-.9-1-1.9-1.9-3.1-2.7-.9-.5-2-.8-3-.8-.9 0-1.9.1-2.8.4-.5.1-.9.3-1.3.4-.4.3-.9.5-1.3.8-1.6 1.3-3.1 2.9-4.4 3.5-1.1.6-2.2.9-3.5 1.1-.8.1-1.7-.1-2.2-.7-.2-.3-.4-.6-.6-1 0-.1 0-.2-.1-.2v-.3.4c0 .1 0 .2.1.2.1.4.3.8.5 1.1.6.7 1.4 1 2.3 1 1.2-.1 2.4-.3 3.5-.8.3-.1.7-.3 1-.5.4-.2.7-.5 1.1-.8.7-.6 1.5-1.3 2.3-1.9.4-.3.8-.5 1.2-.8.4-.2.9-.3 1.3-.4.9-.2 1.8-.3 2.8-.2 1 .1 2 .4 2.9.9 1.1.8 2.1 1.7 3 2.7 1 1.1 2 2.1 3.1 3l.4.3.4.2.4.2c.1 0 .3.1.4.1l.8.2c.3.1.5.1.8.1.5 0 1.1.1 1.7.1h2c1.1.1 2.3-.1 3.3-.5 1.1-.5 2.2-1.3 3.3-1.9.5-.3 1.1-.5 1.6-.8l1.6-.7c2-.9 4.2-1.6 6.4-2 .5-.1 1-.2 1.5-.2h1.5l.8.1h.4c.1 0 .2.1.4.1l.7.2c.2.1.5.3.7.4 1 .6 1.9 1.3 2.8 2.1.8.7 1.7 1.4 2.6 2l.6.4c.2.1.4.2.6.2l.6.2.6.1c.8 0 1.5.1 2.2.1l1.8-.1 1.6-.2 3-.4h-3zm33.7 9.6h-3.5c-.7 0-1.4-.2-2.2-.2l-.6-.1-.6-.2c-.2-.1-.4-.1-.6-.2l-.6-.4c-.9-.6-1.8-1.3-2.6-2.1-.9-.8-1.8-1.6-2.8-2.2-.2-.1-.5-.3-.7-.4l-.7-.2c-.1-.1-.2-.1-.4-.1h-.4l-.8-.1c-.5-.1-1-.1-1.5 0-.5 0-1 .1-1.5.1-2.2.4-4.3 1-6.4 1.9l-1.6.6c-.6.2-1.1.5-1.6.7-1.1.6-2.2 1.4-3.3 1.8-1 .4-2.2.6-3.3.6L301 17c-.6 0-1.1 0-1.6-.1-.3 0-.6-.1-.8-.1l-.8-.2c-.1 0-.3-.1-.4-.1l-.4-.2c-.1-.1-.3-.1-.4-.2l-.4-.3c-1.1-.9-2.2-1.8-3.1-2.9-.9-1-1.9-1.9-3.1-2.6-.9-.5-2-.8-3-.8-.9 0-1.9.1-2.8.4-.5.1-.9.3-1.3.4-.4.2-.9.5-1.2.8-1.6 1.3-3.1 2.9-4.4 3.5-1.1.6-2.3.9-3.5 1.1-.8.1-1.7-.1-2.2-.7-.3-.3-.4-.6-.5-1 0-.1 0-.2-.1-.2s0-.1 0-.2v-.2.4c0 .1 0 .1.1.2.1.4.3.8.5 1.1.6.7 1.4 1 2.3.9 1.2-.1 2.4-.3 3.5-.8.3-.1.7-.3 1-.5.4-.2.7-.5 1.1-.8.7-.6 1.5-1.3 2.3-1.9.4-.3.8-.5 1.2-.8.4-.2.9-.3 1.3-.4.9-.2 1.8-.3 2.8-.2 1 .1 2 .4 2.9.9 1.1.8 2.1 1.7 3 2.7 1 1.1 2 2.1 3.1 3l.4.3c.1.1.3.2.4.2l.4.2c.1.1.3.1.4.1l.8.2c.3.1.5.1.8.2.5 0 1.1.1 1.7.1h1.7c1.2.1 2.3-.1 3.4-.6s2.2-1.3 3.3-1.9c.5-.3 1.1-.5 1.6-.7l1.6-.7c2-.9 4.2-1.6 6.4-2 .5-.1 1-.2 1.5-.2h2.6l.4.1.7.2c.2.1.5.3.7.4 1 .6 1.9 1.3 2.8 2.1.8.7 1.7 1.4 2.6 1.9l.6.4c.2.1.4.2.6.2l.6.2h.6c.7.1 1.4.1 2.2.1l1.9-.1 1.6-.2 3-.4-3.1.4zM3.4 53.5c1.1.3 2.2.6 3.2 1.1 1.3.6 2.5 1.5 3.8 2 1 .3 2 .6 3.1.8 1 .2 1.9.5 2.8.7.5.1.9 0 1.2.2.4.4.6.9.6 1.5-.2.1-.3.2-.5.4 0 1.3 3.2 3 4.1 3.7 1.3 1 2.6 2.1 3.7 3.4.4.4.8 1.4 1.3 1.6 1 .3 2.7-.6 3.3-.8 1.3-.5 2.5-.6 3.8-1 .8-.2 1.8-.8 2.6-1V66c-.9.1-2.5.8-3.3.3-.5-.3-.5-1.1-.6-1.8-.3-1.6-.9-4.1-.4-5.4h3.1c.2.1.2.3.5.3l11.7-.9v-.4c.6-.1 1.3-.1 1.9-.1l.2.3c1.5-.3 3 .1 4.2 1.1.3.2 1.2 1 1.3.9h-.1c.3-.2.9-.5 1.3-.4.2.4.5.7.7 1.1.6-.1 1.3.1 1.8.5 1.6-.9 3.6-.9 5.2-.1l1.2.7c.3-.9.8-1.8 1.3-2.7.3-.1.6 0 .8.2l.1.3c-.6 1-1.1 2.1-1.7 3.1l.3 1.5c0 .4-.1.9-.1 1.3.4.1.8.6 1 .9-.2 1-.7 1.9-1.4 2.5l-1-.3c-.1.4-.5.8-.4.9 1.5.6 1.2 2.1-.3 2.4-1 .2-2-1.8-2.2-2.4L60 71.6c-.7.8-1.6 1.5-2.5 2.2-.3.2-1.5.9-1.4 1.2.3.8.9 1.2.8 2.2-.8.3-1.3 1.2-2.4.9-.1-.2-.3-.5-.4-.7l-.1-.1c-.5.2-.5.8-.9 1.1s-1 .3-.8.8l.5.3c0 .1 0 .2-.1.3-.5.1-1 .1-1.5 0-.2-.1-.2-.4-.2-.7.2-.4.6-.6.9-1.1-1.8.2-3.2.6-4.7-.2-.5.5-1.2.7-1.9.6l-.3-.2c-.5 0-1.2.5-1.8.7h-1.3c-1 .2-1.9.8-3 1.1-.9.2-1.8.3-2.7.2 2.6-.1 3.6-1 5.4-1.7l1.9-.6.4-.4-.1-.1c-.6-.3-1.1-.8-1.2-1.5V75l-.5-.7c-1.1-.2-2.2-.3-3.3-.1-2.7.4-5.5.6-8.2.6-1.2.2-2.4.1-3.6 0l-2-1.2-1.4-.2c-.3-.1-.9-.4-1.2-.5h-.5c-1.2-.5-2.4-1.2-3.6-1.7-1-.4-1.9-.5-2.8-.9l-3.4-1.7-1.1-.7-1.8-.3c-2.1-.8-4-1.9-5.8-3.3l-2.2-1.4c-.3-.3-.3-.8-.6-1.2s-.4-.5-.6-.9c0-.1.1-.1.1-.2.9.2 2.5 1.6 3.3 2.1 2.1 1.4 4.3 2.4 6.7 3 1.5.2 2.9.2 4.4 0 .5-.1 1 0 1.4.1.6.5.3 1.3.1 1.9.5.1 1 .2 1.5.4l1.2.1c.8.2 1.6.3 2.4.2L19.9 67c-1.4-1.8-2.9-3.4-4.5-5-.7-.7-1.4-1.2-2.1-1.8-.2-.2-.2-.4-.5-.5l-2.5.3c-1.5-.3-3-.6-4.4-.9-.5-.1-1-.2-1.4-.4-1.3-.9-1.5-1.8-2-3.4-.1-.3-.6-.8-.3-1.5l.2-.2 1-.1zm53.8 7.7c-.5.5-.5.6-.3 1.3.4.1.9-.1 1.1-.5l.5-.3v-.1l-1.3-.4zm19.5 31.3V75.4h5.6c1.5-.1 3 .3 4.2 1.2 1 .8 1.6 2.1 1.5 3.4 0 .7-.3 1.4-.7 2-.5.6-1.2 1.1-1.9 1.3 1 .2 1.8.7 2.4 1.5.6.8.9 1.8.9 2.8.1 1.4-.5 2.7-1.5 3.6-1.2.9-2.6 1.3-4.1 1.3h-6.4zm2.3-9.8h3.7c.8 0 1.5-.2 2.1-.7 1.1-1.1 1-2.9-.1-4-.7-.5-1.6-.7-2.5-.7H79v5.4zm0 1.8v6.2h4c.9.1 1.8-.2 2.4-.8.6-.6.9-1.4.9-2.2.1-.8-.2-1.7-.7-2.3-.6-.6-1.4-.9-2.3-.8l-4.3-.1zm31 8.2c-1.6.1-3.1-.6-4.2-1.7-1.1-1.3-1.6-2.9-1.6-4.6v-.5c-.1-1.7.5-3.3 1.6-4.5.9-1.1 2.3-1.8 3.8-1.8 1.5-.1 2.9.5 3.9 1.6.9 1.2 1.4 2.6 1.3 4.1v1.4h-8.2v.1c0 1.1.3 2.1.9 3 .6.7 1.5 1.2 2.4 1.1.7 0 1.4-.1 2.1-.3.6-.2 1.1-.5 1.5-.9l.9 1.5c-.5.5-1.1.9-1.8 1.1-.8.3-1.7.4-2.6.4zm-.3-11.3c-.8 0-1.5.4-2 1-.6.7-.9 1.6-1 2.4v.1h5.8v-.3c0-.8-.2-1.6-.7-2.3-.5-.6-1.3-1-2.1-.9z"/><path class="st1" d="M153.5 86.6v5.8h-4v-17h6.9c1.8-.1 3.5.5 4.8 1.6 2.2 2.1 2.4 5.6.3 7.8l-.3.3c-1.4 1.1-3.1 1.6-4.8 1.5h-2.9zm0-3h3c.7.1 1.5-.2 2-.7.5-.5.7-1.1.7-1.8s-.2-1.4-.7-1.9c-.5-.5-1.3-.8-2-.7h-3v5.1zm28.9 2.3v6.5h-4v-17h6.6c1.7-.1 3.3.4 4.7 1.4 1.1.9 1.8 2.3 1.7 3.8 0 .8-.2 1.6-.7 2.3-.5.7-1.3 1.2-2.1 1.5.9.2 1.8.7 2.3 1.5.5.8.7 1.7.7 2.6v1.1c0 .5.1 1 .2 1.5s.3.9.7 1.2v.2h-4.1c-.4-.3-.6-.8-.6-1.3-.1-.6-.1-1.1-.1-1.7v-1c0-.7-.2-1.4-.6-1.9-.5-.5-1.2-.7-1.9-.7h-2.8zm0-3h2.6c.7 0 1.3-.2 1.8-.6.4-.4.7-1 .6-1.6 0-.6-.2-1.2-.6-1.7-.5-.5-1.2-.7-1.8-.6h-2.6v4.5zm39.2 2.6c.1 1.9-.7 3.8-2 5.2-1.4 1.4-3.3 2.1-5.2 2-3.8.2-7.1-2.8-7.3-6.6v-3.6c-.1-1.9.7-3.8 2-5.2 3-2.7 7.5-2.7 10.5 0 1.3 1.4 2.1 3.3 2 5.2v3zm-3.9-3.1c0-1.1-.3-2.1-.9-3-1.1-1.3-3.1-1.6-4.4-.5-.2.1-.3.3-.5.5-.6.9-.9 1.9-.9 3v3.1c0 1.1.3 2.1.9 3 .6.8 1.5 1.2 2.5 1.2s1.9-.4 2.4-1.2c.6-.9.9-1.9.9-3v-3.1z"/><path class="st0" d="M266.3 88.1h-7.1l-1.6 4.4h-2.4l6.6-17.1h2l6.5 17.1h-2.4l-1.6-4.4zm-6.4-2h5.7l-2.8-7.8h-.1l-2.8 7.8zm30.6 4.8c.7 0 1.4-.2 2-.7.5-.4.9-1.1.9-1.7h2.1v.1c0 1.2-.5 2.2-1.4 2.9-1 .8-2.2 1.3-3.5 1.3-1.6.1-3.2-.6-4.2-1.8-1-1.3-1.5-2.9-1.5-4.5V86c-.1-1.6.5-3.2 1.5-4.5 2.1-2.2 5.5-2.4 7.9-.5.9.8 1.4 2 1.4 3.2v.1h-2.1c0-.8-.3-1.5-.8-2s-1.3-.8-2.1-.8c-1-.1-2 .4-2.6 1.3-.5 1-.8 2.1-.8 3.2v.5c0 1.1.2 2.3.8 3.2.3.8 1.4 1.3 2.4 1.2zm23.8-14.2v3h2.4v1.8h-2.4v7.7c0 .5.1.9.4 1.3.3.3.6.4 1 .4h.4c.1 0 .3-.1.4-.1l.3 1.6c-.2.2-.5.3-.8.3-.3.1-.7.1-1 .1-.8 0-1.6-.3-2.2-.8-.6-.7-.9-1.7-.8-2.7v-7.7h-2v-1.7h2v-3l2.3-.2zm21-.2H333v-2.4h2.3v2.4zm0 16H333V79.8h2.3v12.7zm20.9-3.8l.2.9h.1l.2-.9 2.9-9h2.3l-4.7 12.7h-1.8l-4.7-12.7h2.4l3.1 9zm26.2 4c-1.6.1-3.1-.5-4.2-1.7-1.1-1.3-1.6-2.9-1.6-4.6v-.5c-.1-1.7.5-3.3 1.6-4.5.9-1.1 2.3-1.8 3.8-1.8 1.5-.1 2.9.5 3.9 1.6.9 1.2 1.4 2.6 1.3 4.1v1.4H379v.1c0 1.1.3 2.1.9 3 .6.8 1.5 1.2 2.5 1.2.7 0 1.4-.1 2.1-.3.6-.2 1.1-.5 1.5-.9l.9 1.5c-.5.5-1.1.9-1.8 1.1-.9.2-1.8.4-2.7.3zm-.4-11.3c-.8 0-1.5.4-2 1-.6.7-.9 1.6-1 2.4v.1h5.9v-.3c0-.8-.2-1.6-.7-2.3-.5-.6-1.3-1-2.2-.9z"/><g class="st2"><path class="st0" d="M345.4 60.7h-2.6v-2.2h2.6v2.2zm8.2-1.8c.5 0 .8-.1 1.1-.4s.4-.6.4-1.1h2.3v.1c0 1-.3 1.8-1.1 2.4-.7.6-1.7 1-2.8 1-1.4 0-2.5-.4-3.3-1.3s-1.2-2-1.2-3.5v-.3c0-1.4.4-2.6 1.1-3.5s1.9-1.4 3.3-1.4c1.2 0 2.1.3 2.8 1s1.1 1.5 1 2.6v.1h-2.3c0-.5-.1-.9-.4-1.2-.3-.3-.6-.5-1.1-.5-.7 0-1.2.3-1.4.8s-.4 1.2-.4 2v.3c0 .8.1 1.5.4 2s.9.9 1.6.9zm6.7-3c0-1.4.4-2.6 1.2-3.5.8-.9 1.9-1.4 3.3-1.4s2.5.5 3.3 1.4 1.2 2.1 1.2 3.5v.2c0 1.4-.4 2.6-1.2 3.5s-1.9 1.3-3.3 1.3-2.5-.4-3.3-1.3-1.2-2.1-1.2-3.5v-.2zm2.6.1c0 .9.2 1.6.5 2.1s.8.8 1.5.8 1.1-.3 1.5-.8.5-1.2.5-2.1v-.2c0-.8-.2-1.5-.5-2.1s-.8-.8-1.5-.8-1.1.3-1.5.8c-.3.5-.5 1.2-.5 2.1v.2zm12.2-4.8l.1 1.3c.3-.5.7-.8 1.1-1.1.5-.2 1-.4 1.6-.4.6 0 1.1.1 1.6.4s.8.7 1 1.2c.3-.5.7-.9 1.1-1.2s1-.4 1.7-.4c.9 0 1.7.3 2.2 1 .5.6.8 1.6.8 3v5.8h-2.6V55c0-.7-.1-1.2-.4-1.5s-.6-.4-1-.4-.7.1-.9.2-.5.4-.6.7v6.8h-2.6V55c0-.7-.1-1.2-.4-1.5-.2-.3-.6-.4-1.1-.4-.3 0-.6.1-.9.2s-.5.3-.6.6v7h-2.6v-9.5h2.5z"/></g></svg>